<svg width="66" height="66" fill="none" xmlns="http://www.w3.org/2000/svg"><path d="M7.7344 0v7.7344H5.8008v3.8672h15.4687V7.7344h-1.9336V3.8672h8.8674l3.3007 3.3006 2.7341-2.734L29.8045 0H7.7344ZM46.5352 52.3379c0 1.065.8667 1.9316 1.9336 1.9316 1.065 0 1.9335-.8667 1.9335-1.9336-.017-.5929-.8213-2.2772-1.9335-4.1504-1.1142 1.8769-1.9186 3.5613-1.9336 4.1524Z" fill="#008FDD"/><path d="M58.2656 31.0664v-3.8672H38.6719v3.8672h-3.1288c-3.321 6.71-4.6056 12.782-4.6056 17.4024 0 4.6158 1.2815 10.8148 4.6056 17.5312h25.8515C64.7155 59.2898 66 53.0891 66 48.4688c0-4.6159-1.2815-10.686-4.6056-17.4024h-3.1288Zm-9.7968 27.0703c-3.1987 0-5.8008-2.6021-5.8008-5.8008 0-2.4717 2.9438-6.9998 4.2089-8.8333l1.5919-2.3036 1.5918 2.3036c1.2651 1.8335 4.2089 6.3616 4.2089 8.8333 0 3.1987-2.6021 5.8008-5.8007 5.8008ZM38.6719 11.6016h19.5937V23.332H38.6719V11.6016ZM11.6016 44.6035c0 1.0649.8667 1.9317 1.9336 1.9317 1.065 0 1.9336-.8668 1.9336-1.9336-.0171-.593-.8214-2.2773-1.9336-4.1504-1.1142 1.8768-1.9186 3.5613-1.9336 4.1523ZM0 58.1367h27.0703V66H0v-7.8633ZM0 15.4688h27.0703v7.8632H0v-7.8632Z" fill="#008FDD"/><path d="M27.0703 27.1992H0v27.0703h27.0703V27.1992ZM13.5352 50.4023c-3.1987 0-5.8008-2.6021-5.8008-5.8007 0-2.4718 2.9438-6.9999 4.2089-8.8333l1.5919-2.3037 1.5918 2.3037c1.2651 1.8334 4.2089 6.3615 4.2089 8.8333 0 3.1986-2.6021 5.8007-5.8007 5.8007Z" fill="#008FDD"/></svg>