<svg width="97" height="97" fill="none" xmlns="http://www.w3.org/2000/svg"><g clip-path="url(#a)" fill="#008FDD"><path d="M46.1062 38.4172v-4.5808h4.5808v4.5808h-4.5808ZM46.7775 62.0411a2.2754 2.2754 0 0 0-.6709 1.6191l.0004 8.5911c-.0004.6118.2381 1.1871.6705 1.6195.4327.4327 1.0076.6709 1.6195.6705.6114 0 1.1863-.2381 1.6191-.6709a2.2754 2.2754 0 0 0 .6709-1.6191l.0004-8.5911a2.276 2.276 0 0 0-.6706-1.6195 2.275 2.275 0 0 0-1.6198-.6709c-.6119.0004-1.1868.2385-1.6195.6713Z"/><path d="M54.6977 40.4214a1.9992 1.9992 0 0 1-.5875 1.4182 1.9991 1.9991 0 0 1-1.4179.5871l-8.5911.0004a2.0052 2.0052 0 0 1-2.0053-2.0054l.0004-6.5861-11.8124.0004-.0003 37.3415c0 4.8386 1.8842 9.3872 5.3052 12.8082 2.9439 2.944 6.7231 4.7484 10.8028 5.1949v4.7772c0 1.1077.8976 2.0053 2.0054 2.0053a1.9983 1.9983 0 0 0 1.4179-.5871 1.9973 1.9973 0 0 0 .587-1.4178v-4.7773c4.0801-.4467 7.8593-2.2512 10.8033-5.1952 3.421-3.421 5.3048-7.97 5.3052-12.8082V33.8356H54.6977v6.5858Zm.0003 23.2388-.0003 8.5911c-.0004 1.6826-.6554 3.2652-1.8455 4.4552-1.19 1.1901-2.7722 1.8455-4.4552 1.8455-1.683 0-3.2652-.6554-4.4553-1.8455-1.19-1.19-1.8454-2.7722-1.8454-4.4552v-8.5907c0-1.683.6554-3.2652 1.8454-4.4553 1.1905-1.1904 2.7726-1.8458 4.4556-1.8458 1.6827.0004 3.2652.6554 4.4553 1.8455 1.1897 1.1904 1.8451 2.7726 1.8454 4.4552ZM64.505 16.9389c-1.1077 0-2.0053.8976-2.0053 2.0054v2.29h-2.4325v-2.29c0-1.1078-.8977-2.0054-2.005-2.0058-1.1074.0004-2.005.898-2.0054 2.0054l-.0003 2.2904h-2.4326v-2.29c0-1.1078-.8976-2.0054-2.0049-2.0058-1.1074.0004-2.005.898-2.0054 2.0054l-.0004 2.2904h-2.4325v-2.2908c0-1.107-.898-2.005-2.005-2.005-1.1077 0-2.0053.8977-2.0053 2.0054l-.0004 2.2904h-2.4325l-.0004-2.2904c.0004-1.1074-.8976-2.0054-2.005-2.005-1.1077 0-2.0053.8976-2.0053 2.0054v2.29l-2.4329.0003-.0004-2.2903c.0004-1.1074-.8976-2.0054-2.005-2.005-1.1077 0-2.0053.8976-2.0053 2.0053v4.295c.0004.0004.0004.0004.0004.0011v6.585l36.2268-.0007-.0004-6.5846s.0004-.0004.0004-.0012l-.0004-4.2953c.0004-1.1074-.8976-2.0054-2.005-2.005Z"/></g><defs><clipPath id="a"><path fill="#fff" transform="rotate(-45 58.4203 24.1985)" d="M0 0h68.4436v68.4436H0z"/></clipPath></defs></svg>