<svg width="28" height="30" fill="none" xmlns="http://www.w3.org/2000/svg"><path d="M24.3158 12.2804V8.5963h-2.4562v3.6841h-3.6842v2.4561h3.6842v3.6841h2.4562v-3.6841H28v-2.4561h-3.6842Zm-9.4562 4.1753-1.3509-.9824c-.4912-.3684-.9824-.8597-.9824-1.7193s.6141-1.5964 1.2281-1.9648c1.5965-1.2281 3.193-2.579 3.193-5.2806 0-2.5789-1.5965-4.0525-2.4562-4.7894h2.0877L18.0526 0h-7.614C5.0351 0 2.3333 3.4385 2.3333 7.1226c0 2.8245 2.2106 5.8946 6.1404 5.8946h.9824c-.1228.3684-.4912.9824-.4912 1.5964 0 1.2281.4912 1.7193 1.1053 2.4561-1.7193.1228-4.9123.4912-7.2456 1.9649C.614 20.3854 0 22.2275 0 23.5783c0 2.8245 2.579 5.5262 8.1053 5.5262 6.6315 0 9.8246-3.6841 9.8246-7.2454-.0001-2.5789-1.351-3.9298-3.0703-5.4034ZM5.5263 5.2806c0-2.7017 1.5965-3.9298 3.3158-3.9298 3.193 0 4.9123 4.2982 4.9123 6.7543 0 3.1928-2.579 3.8069-3.5614 3.8069-3.0702 0-4.6667-3.807-4.6667-6.6314Zm4.421 22.1046c-4.0526 0-6.6316-1.842-6.6316-4.5437s2.4562-3.5614 3.193-3.9298c1.5965-.4912 3.6842-.614 4.0527-.614h.8596c2.9474 2.0877 4.1754 2.9473 4.1754 4.9122 0 2.3333-2.3332 4.1753-5.649 4.1753Z" fill="#fff"/></svg>