<svg width="102" height="102" fill="none" xmlns="http://www.w3.org/2000/svg"><g clip-path="url(#a)"><path d="M50.5803 7.7758c-5.9567.5212-10.4841 5.7813-9.9634 11.7387l2.6799 30.6337-10.1348 4.7253c-3.3942-5.8978-10.7952-8.3183-17.0774-5.3885-6.6334 3.0944-9.5029 10.9778-6.4103 17.6121 3.0937 6.6328 10.978 9.5042 17.613 6.4105 4.5525-2.123 7.3311-6.5037 7.627-11.186l12.4122-5.7883 1.1931 13.6421c-3.9063 2.5979-6.3106 7.1944-5.8739 12.1982.6384 7.2926 7.0664 12.6846 14.3573 12.0476 7.2926-.6385 12.6855-7.066 12.0481-14.3569-.6041-6.9049-6.401-12.1038-13.2053-12.0953l-.9751-11.1396 27.8681-12.9956c5.4205-2.5273 7.7114-9.0786 5.1843-14.4979L53.8559 45.2238l-3.2756-37.448ZM27.6756 64.9207c-1.8971 3.286-6.0992 4.4119-9.3851 2.5148-3.286-1.8972-4.4118-6.0993-2.5147-9.3852 1.8975-3.2867 6.0991-4.4118 9.3851-2.5147 3.2859 1.8971 4.4123 6.0984 2.5147 9.3851Zm34.113 19.6951c-1.8972 3.286-6.0992 4.4119-9.3852 2.5148-3.2859-1.8972-4.4118-6.0992-2.5147-9.3851 1.8976-3.2867 6.0992-4.4119 9.3851-2.5148s4.4123 6.0984 2.5148 9.3851Z" fill="#99BAED"/></g><defs><clipPath id="a"><path fill="#fff" transform="rotate(-60 55.6684 32.1401)" d="M0 0h74.2244v74.2244H0z"/></clipPath></defs></svg>