<svg width="58" height="67" fill="none" xmlns="http://www.w3.org/2000/svg"><path d="M10.0398.9953c-4.3073 3.016-5.4424 9.0126-2.4264 13.3207l15.5104 22.1516-5.6407 8.0548c-5.1781-2.9992-11.8788-1.5884-15.375 3.4052-3.691 5.2733-2.4101 12.5388 2.8621 16.2315 5.2725 3.6911 12.5395 2.4111 16.2322-2.8623 2.5336-3.6186 2.7235-8.1765.8901-11.8726l6.9077-9.8658 6.9069 9.8649c-1.8325 3.6961-1.6426 8.2538.8901 11.8726 3.6927 5.2731 10.959 6.5532 16.2313 2.8623 5.2731-3.6928 6.5541-10.959 2.8629-16.2314-3.4961-4.993-10.1968-6.4035-15.3749-3.4051l-5.6407-8.0549 15.5094-22.1507c3.017-4.3081 1.8811-10.3047-2.4264-13.3207L29.0001 28.0745 10.0398.9953Zm7.6828 53.5912c0 3.3366-2.7051 6.0418-6.0418 6.0418-3.3366 0-6.0417-2.7053-6.0417-6.0418 0-3.3374 2.705-6.0418 6.0417-6.0418 3.3367 0 6.0418 2.7044 6.0418 6.0418Zm34.6392 0c0 3.3366-2.7051 6.0417-6.0418 6.0417-3.3366 0-6.0417-2.7051-6.0417-6.0417 0-3.3374 2.7051-6.0418 6.0417-6.0418s6.0418 2.7043 6.0418 6.0418Z" fill="#008FDD"/></svg>