<svg width="32" height="26" fill="none" xmlns="http://www.w3.org/2000/svg"><path d="M31.6923 3.0484c-1.1786.517-2.4344.8597-3.7437 1.026 1.3469-.8041 2.375-2.0679 2.8583-3.591-1.2558.7486-2.6424 1.2775-4.12 1.5726C25.4944.7864 23.7949 0 21.9409 0c-3.597 0-6.4929 2.9196-6.4929 6.4989 0 .515.0436 1.0102.1505 1.4816-5.4015-.2634-10.1811-2.8523-13.392-6.796-.5605.9726-.8893 2.0857-.8893 3.2841 0 2.2502 1.1588 4.2448 2.886 5.3996-1.0439-.0198-2.068-.3229-2.9355-.8002v.0713c0 3.1573 2.2521 5.7799 5.2054 6.384-.5288.1446-1.1052.2139-1.7034.2139-.416 0-.8359-.0238-1.23-.1109.8418 2.573 3.2306 4.4646 6.071 4.526-2.2106 1.7293-5.0173 2.7711-8.0558 2.7711-.5328 0-1.0439-.0237-1.5549-.0891 2.878 1.856 6.289 2.9157 9.9672 2.9157 11.9559 0 18.4925-9.9038 18.4925-18.4885 0-.2872-.01-.5645-.0238-.8399 1.2895-.915 2.3729-2.058 3.2564-3.3732Z" fill="#fff"/></svg>