<svg aria-hidden="true" style="position:absolute;width:0;height:0;overflow:hidden" xmlns="http://www.w3.org/2000/svg"><defs>
<symbol id="menu" viewBox="0 0 32 32"><path d="M2 6h28v6H2zm0 8h28v6H2zm0 8h28v6H2z"/></symbol>
<symbol id="cross" viewBox="0 0 32 32"><path d="M31.708 25.708 22 16l9.708-9.708a1 1 0 0 0 .229-.357c.133-.356.057-.771-.229-1.057L27.122.292c-.286-.286-.702-.361-1.057-.229a.9973.9973 0 0 0-.357.228L16 9.999 6.292.291a.9973.9973 0 0 0-.357-.228C5.579-.07 5.164.006 4.878.292L.292 4.878c-.286.286-.361.702-.229 1.057a1 1 0 0 0 .229.357L10 16 .292 25.708c-.104.105-.18.227-.229.357a.9987.9987 0 0 0 .229 1.057l4.586 4.586c.286.286.702.361 1.057.229a1 1 0 0 0 .357-.229L16 22l9.708 9.708a1 1 0 0 0 .357.229c.356.133.771.057 1.057-.229l4.586-4.586a.9987.9987 0 0 0 .229-1.057 1 1 0 0 0-.229-.357z"/></symbol>
</defs></svg>