<svg width="42" height="42" fill="none" xmlns="http://www.w3.org/2000/svg"><g clip-path="url(#a)"><path d="M34.597 20.38c-1.279-1.493-1.86-2.787-1.86-4.985v-.747c0-2.864-.659-4.71-2.092-6.555C28.436 5.227 24.718 3.5 21.077 3.5h-.154c-3.564 0-7.166 1.648-9.413 4.397-1.512 1.883-2.247 3.807-2.247 6.75v.748c0 2.198-.543 3.492-1.86 4.984-.968 1.1-1.278 2.514-1.278 4.043 0 1.532.503 2.983 1.511 4.162a7.931 7.931 0 0 0 5.076 2.473c2.75.313 5.499.431 8.289.431 2.788 0 5.538-.197 8.29-.431a7.93 7.93 0 0 0 5.073-2.473c1.007-1.18 1.511-2.63 1.511-4.162 0-1.53-.31-2.943-1.278-4.043Z" fill="#99BAED"/><path opacity=".4" d="M24.515 33.65c-.875-.187-6.206-.187-7.08 0-.748.172-1.557.574-1.557 1.456.043.84.536 1.582 1.218 2.053l-.002.002a6.364 6.364 0 0 0 3 1.28c.578.08 1.165.077 1.764 0a6.364 6.364 0 0 0 2.998-1.28l-.002-.002c.682-.47 1.174-1.213 1.218-2.053 0-.882-.809-1.284-1.557-1.456Z" fill="#AEAEAE"/><circle cx="29.569" cy="7.554" r="7.954" transform="rotate(-.887 29.569 7.554)" fill="#FF5050" stroke="#fff"/><path d="M29.375 5.242c-.447.007-.832.073-1.157.198-.325.118-.58.236-.765.352l.236 1.036c.12-.068.261-.144.427-.226a3.23 3.23 0 0 1 .537-.209c.199-.063.398-.096.598-.099.333-.005.601.057.803.188.202.123.305.312.309.565a.91.91 0 0 1-.104.402 2.046 2.046 0 0 1-.333.455 7.2 7.2 0 0 1-.541.538l-1.994 1.751.014.87 4.42-.068-.136-.988-2.53.049.938-.815c.322-.278.582-.529.778-.752.197-.23.343-.462.44-.697.096-.241.142-.515.137-.822a1.662 1.662 0 0 0-.264-.896c-.164-.264-.4-.47-.71-.619-.309-.149-.677-.22-1.103-.213Z" fill="#fff"/></g><defs><clipPath id="a"><path fill="#fff" d="M0 0h42v42H0z"/></clipPath></defs></svg>