<svg aria-hidden="true" style="position:absolute;width:0;height:0;overflow:hidden" xmlns="http://www.w3.org/2000/svg"><defs>
<symbol id="cleanser" viewBox="0 0 32 32"><path fill=""  d="M3.75 0v3.75h-.938v1.875h7.5V3.75h-.938V1.875h4.299l1.6 1.6 1.326-1.326-2.15-2.15H3.748zm18.813 25.376c0 .516.42.937.938.937s.937-.42.937-.938c-.008-.287-.398-1.104-.937-2.012-.54.91-.93 1.727-.938 2.013z"/><path fill=""  d="M28.25 15.063v-1.875h-9.5v1.875h-1.517C15.623 18.316 15 21.26 15 23.501c0 2.238.621 5.244 2.233 8.5h12.534c1.61-3.253 2.233-6.26 2.233-8.5 0-2.238-.621-5.181-2.233-8.438H28.25zM23.5 28.188c-1.551 0-2.813-1.262-2.813-2.813 0-1.198 1.427-3.394 2.041-4.283l.772-1.117.772 1.117c.613.889 2.041 3.084 2.041 4.283 0 1.551-1.262 2.813-2.812 2.813zM18.75 5.625h9.5v5.687h-9.5V5.625zM5.625 21.626c0 .516.42.937.938.937s.938-.42.938-.938c-.008-.288-.398-1.104-.938-2.012-.54.91-.93 1.727-.938 2.013zM0 28.188h13.125v3.813H0v-3.813zM0 7.5h13.125v3.812H0V7.5z"/><path fill=""  d="M13.125 13.188H0v13.125h13.125V13.188zM6.563 24.437c-1.551 0-2.813-1.262-2.813-2.812 0-1.198 1.427-3.394 2.041-4.283l.772-1.117.772 1.117c.613.889 2.041 3.084 2.041 4.283 0 1.551-1.262 2.812-2.812 2.812z"/></symbol>
<symbol id="electricRazor" viewBox="0 0 32 32"><path fill=""  d="M15.21 12.674v-1.511h1.511v1.511H15.21zm.222 7.793a.7464.7464 0 0 0-.221.532v2.836c0 .202.079.392.221.534s.332.221.534.221.391-.079.534-.221a.7464.7464 0 0 0 .221-.532V20.999c0-.208-.085-.396-.221-.532a.7464.7464 0 0 0-.532-.221h-.002c-.202 0-.392.079-.534.221z"/><path fill=""  d="M18.045 13.335v.001c0 .182-.074.348-.194.467a.6549.6549 0 0 1-.467.194h-2.835a.6621.6621 0 0 1-.662-.662v-2.173H9.99v12.319c0 1.596.622 3.097 1.75 4.225.971.971 2.218 1.566 3.564 1.714v1.576c0 .365.296.662.662.662h.001c.182 0 .347-.074.467-.194.12-.119.194-.284.194-.467V29.42c1.346-.147 2.593-.743 3.564-1.714 1.129-1.129 1.75-2.629 1.75-4.225V11.162h-3.897v2.173zm0 7.666v2.834c0 .555-.216 1.077-.609 1.47s-.915.609-1.47.609-1.077-.216-1.47-.609a2.065 2.065 0 0 1-.609-1.47v-2.834c0-.555.216-1.077.609-1.47s.915-.609 1.47-.609c.555 0 1.077.216 1.47.609s.609.915.609 1.47zM21.28 5.588c-.365 0-.662.296-.662.662v.755h-.802V6.25c0-.365-.296-.662-.661-.662s-.661.296-.662.662v.756h-.802v-.755c0-.365-.296-.662-.661-.662s-.661.296-.662.662v.756h-.802v-.756c0-.365-.296-.661-.661-.661s-.662.296-.662.662v.756h-.802v-.756c0-.365-.296-.662-.661-.661s-.662.296-.662.662v.755h-.803v-.756c0-.365-.296-.662-.661-.661s-.662.296-.662.662V9.842h11.951V6.253c0-.365-.296-.662-.661-.661z"/></symbol>
<symbol id="facebook" viewBox="0 0 32 32"><path fill=""  d="M21.079 5.313H24V.225C23.496.156 21.763 0 19.744 0c-4.212 0-7.097 2.649-7.097 7.519V12H7.999v5.688h4.648V32h5.698V17.689h4.46l.708-5.688h-5.169V8.082c.001-1.644.444-2.769 2.734-2.769z"/></symbol>
<symbol id="google" viewBox="0 0 32 32"><path fill=""  d="M27.004 13.099v-3.93h-2.62v3.93h-3.93v2.62h3.93v3.93h2.62v-3.93h3.93v-2.62h-3.93zm-10.087 4.454-1.441-1.048c-.524-.393-1.048-.917-1.048-1.834s.655-1.703 1.31-2.096c1.703-1.31 3.406-2.751 3.406-5.633 0-2.751-1.703-4.323-2.62-5.109h2.227l1.572-1.834h-8.122c-5.764 0-8.646 3.668-8.646 7.597 0 3.013 2.358 6.288 6.55 6.288h1.048c-.131.393-.524 1.048-.524 1.703 0 1.31.524 1.834 1.179 2.62-1.834.131-5.24.524-7.729 2.096-2.358 1.441-3.013 3.406-3.013 4.847 0 3.013 2.751 5.895 8.646 5.895 7.074 0 10.48-3.93 10.48-7.728 0-2.751-1.441-4.192-3.275-5.764zM6.961 5.633c0-2.882 1.703-4.192 3.537-4.192 3.406 0 5.24 4.585 5.24 7.205 0 3.406-2.751 4.061-3.799 4.061-3.275 0-4.978-4.061-4.978-7.074zm4.716 23.578c-4.323 0-7.074-1.965-7.074-4.847s2.62-3.799 3.406-4.192c1.703-.524 3.93-.655 4.323-.655h.917c3.144 2.227 4.454 3.144 4.454 5.24 0 2.489-2.489 4.454-6.026 4.454z"/></symbol>
<symbol id="logo" viewBox="0 0 32 32"><path fill=""  d="M15.868 2.439c-1.869.163-3.289 1.814-3.126 3.683l.841 9.611-3.18 1.482c-1.065-1.85-3.387-2.61-5.358-1.691-2.081.971-2.981 3.444-2.011 5.525s3.444 2.982 5.526 2.011c1.428-.666 2.3-2.04 2.393-3.509l3.894-1.816.374 4.28c-1.226.815-1.98 2.257-1.843 3.827.2 2.288 2.217 3.979 4.504 3.78s3.98-2.217 3.78-4.504c-.19-2.166-2.008-3.797-4.143-3.795l-.306-3.495 8.743-4.077c1.701-.793 2.419-2.848 1.626-4.548l-10.688 4.984-1.028-11.748zM8.683 20.367c-.595 1.031-1.913 1.384-2.944.789s-1.384-1.913-.789-2.944c.595-1.031 1.913-1.384 2.944-.789s1.384 1.913.789 2.944zm10.702 6.179c-.595 1.031-1.913 1.384-2.944.789s-1.384-1.913-.789-2.944c.595-1.031 1.913-1.384 2.944-.789s1.384 1.913.789 2.944z"/></symbol>
<symbol id="Notification" viewBox="0 0 32 32"><path fill="#99baed" style="fill:var(--color3, #99baed)" d="M26.359 15.527c-.974-1.137-1.417-2.123-1.417-3.798v-.569c0-2.182-.502-3.588-1.594-4.994-1.683-2.183-4.516-3.499-7.29-3.499h-.118c-2.715 0-5.46 1.256-7.172 3.35-1.152 1.434-1.712 2.901-1.712 5.143v.569c0 1.675-.413 2.66-1.417 3.798-.738.838-.974 1.915-.974 3.081 0 1.167.383 2.272 1.152 3.171 1.003 1.077 2.42 1.764 3.867 1.884 2.095.239 4.19.329 6.316.329 2.124 0 4.219-.15 6.316-.329 1.446-.12 2.862-.807 3.865-1.884.767-.898 1.152-2.004 1.152-3.171 0-1.166-.236-2.243-.974-3.081z"/><path fill="#aeaeae" style="fill:var(--color4, #aeaeae)" opacity=".4" d="M18.678 25.638c-.667-.142-4.728-.142-5.395 0-.57.132-1.186.438-1.186 1.109.033.641.408 1.206.928 1.564l-.001.001c.672.524 1.46.857 2.286.976.44.06.888.058 1.344 0a4.863 4.863 0 0 0 2.285-.976l-.001-.001c.519-.359.895-.924.928-1.564 0-.671-.616-.978-1.186-1.109z"/></symbol>
<symbol id="Profile" viewBox="0 0 32 32"><path fill="#99baed" style="fill:var(--color3, #99baed)" d="M15.995 20.232c-5.75 0-10.662.907-10.662 4.533 0 3.628 4.881 4.567 10.662 4.567 5.751 0 10.663-.905 10.663-4.533s-4.88-4.567-10.663-4.567z"/><path fill="#a4a4a4" style="fill:var(--color5, #a4a4a4)" opacity=".4" d="M15.995 16.778h.025c3.883 0 7.031-3.148 7.031-7.031v-.026.001c0-3.916-3.139-7.056-7.055-7.056h-.024c-3.884 0-7.032 3.149-7.032 7.032v.024-.001.024c0 3.883 3.148 7.032 7.032 7.032h.026-.001z"/></symbol>
<symbol id="scissors" viewBox="0 0 32 32"><path fill=""  d="M6.944.475C4.887 1.915 4.345 4.78 5.785 6.837l7.408 10.58-2.694 3.847c-2.473-1.432-5.673-.759-7.343 1.626-1.763 2.519-1.151 5.989 1.367 7.752s5.989 1.152 7.753-1.367c1.21-1.728 1.301-3.905.425-5.671L16 18.892l3.299 4.712c-.875 1.765-.785 3.942.425 5.671 1.764 2.518 5.234 3.13 7.752 1.367s3.13-5.234 1.367-7.752c-1.67-2.385-4.87-3.058-7.343-1.626l-2.694-3.847 7.407-10.579c1.441-2.058.898-4.922-1.159-6.362l-9.055 12.933L6.943.476zm3.67 25.596c0 1.594-1.292 2.886-2.886 2.886s-2.886-1.292-2.886-2.886 1.292-2.886 2.886-2.886 2.886 1.292 2.886 2.886zm16.544 0c0 1.594-1.292 2.886-2.886 2.886s-2.886-1.292-2.886-2.886 1.292-2.886 2.886-2.886 2.886 1.292 2.886 2.886z"/></symbol>
<symbol id="twitter" viewBox="0 0 32 32"><path fill=""  d="M31.692 6.048c-1.179.517-2.434.86-3.744 1.026 1.347-.804 2.375-2.068 2.858-3.591-1.256.749-2.642 1.277-4.12 1.573C25.494 3.786 23.794 3 21.94 3c-3.597 0-6.493 2.92-6.493 6.499 0 .515.044 1.01.15 1.482-5.402-.263-10.181-2.852-13.392-6.796-.56.973-.889 2.086-.889 3.284 0 2.25 1.159 4.245 2.886 5.4-1.044-.02-2.068-.323-2.936-.8v.071c0 3.157 2.252 5.78 5.205 6.384-.529.145-1.105.214-1.703.214-.416 0-.836-.024-1.23-.111.842 2.573 3.231 4.465 6.071 4.526-2.211 1.729-5.017 2.771-8.056 2.771-.533 0-1.044-.024-1.555-.089 2.878 1.856 6.289 2.916 9.967 2.916 11.956 0 18.492-9.904 18.492-18.488 0-.287-.01-.565-.024-.84 1.29-.915 2.373-2.058 3.256-3.373z"/></symbol>
</defs></svg>